<svg width="25" height="32" viewBox="0 0 25 32" fill="none" xmlns="http://www.w3.org/2000/svg">
<path d="M24.4243 19.9841L22.7992 17.3281C22.4579 16.7361 22.1492 15.6161 22.1492 14.9601V10.9122C22.1472 9.12664 21.6318 7.37814 20.6627 5.86897C19.6935 4.35979 18.3101 3.15162 16.6726 2.38424C16.2546 1.65359 15.645 1.04688 14.9075 0.627507C14.1699 0.208138 13.3315 -0.00849248 12.4798 0.000254787C10.7084 0.000254787 9.11584 0.944247 8.27079 2.43224C5.10184 3.98422 2.90795 7.2002 2.90795 10.9122V14.9601C2.90795 15.6161 2.59918 16.7361 2.25791 17.3121L0.616557 19.9841C-0.0334835 21.0561 -0.179743 22.2401 0.226532 23.3281C0.616557 24.4001 1.54287 25.2321 2.74544 25.6321C5.89814 26.688 9.21335 27.2 12.5286 27.2C15.8438 27.2 19.159 26.688 22.3117 25.6481C23.4492 25.2801 24.3268 24.4321 24.7493 23.3281C25.1719 22.2241 25.0581 21.0081 24.4243 19.9841ZM17.0951 28.816C16.7533 29.7475 16.1286 30.5527 15.3058 31.1224C14.483 31.692 13.5019 31.9985 12.4961 32C11.2122 32 9.94464 31.488 9.05084 30.576C8.5308 30.096 8.14078 29.456 7.91327 28.8C8.12453 28.832 8.33579 28.848 8.56331 28.88C8.93708 28.928 9.3271 28.976 9.71713 29.008C10.6434 29.088 11.586 29.136 12.5286 29.136C13.4549 29.136 14.3812 29.088 15.2912 29.008C15.6325 28.976 15.9738 28.96 16.2988 28.912L17.0951 28.816Z" fill="#3C3856" fill-opacity="0.5"/>
<circle cx="19" cy="8" r="5" fill="#1D1C84" stroke="white" stroke-width="2"/>
</svg>
