<svg width="56" height="56" viewBox="0 0 56 56" fill="none" xmlns="http://www.w3.org/2000/svg">
<circle cx="28" cy="28" r="28" fill="#F3EFF8"/>
<path d="M27.5381 41.9268C26.1786 41.9123 24.8442 41.5103 23.6563 40.7575L17.5487 36.9987C17.2486 36.8063 16.9989 36.5269 16.8246 36.1891C16.6504 35.8509 16.558 35.4664 16.5567 35.0746V25.6006C16.5567 25.1523 16.8762 24.7888 17.2703 24.7888C17.6646 24.7888 17.9838 25.1523 17.9838 25.6006V35.0746C17.9844 35.2931 18.088 35.4946 18.2552 35.6023L24.3416 39.3936C26.1719 40.5287 28.3609 40.6364 30.2709 39.6857L38.7265 35.4399C38.9131 35.342 39.0329 35.1296 39.0332 34.8959V25.3328C39.0332 24.8845 39.3527 24.521 39.7467 24.521C40.1411 24.521 40.4603 24.8845 40.4603 25.3328V34.8717C40.4596 35.3016 40.3494 35.7224 40.143 36.0826C39.9366 36.4429 39.6429 36.727 39.2973 36.9013L30.8417 41.1472C29.8007 41.6673 28.675 41.9329 27.5381 41.9268Z" fill="#A678E4"/>
<path d="M28.0943 31.9574C27.2068 31.9599 26.3318 31.7232 25.5399 31.2673L11.4544 23.1489C11.1709 22.9702 10.9536 22.6803 10.8434 22.3331C10.7332 21.9859 10.737 21.6049 10.8549 21.261C10.9724 20.9167 11.1957 20.6329 11.483 20.4618L26.0317 12.6275C27.598 11.774 29.4233 11.7921 30.9765 12.6761L45.04 20.6401C45.3381 20.8086 45.5704 21.0978 45.6908 21.4512C45.8112 21.8042 45.8112 22.196 45.6908 22.5494C45.5704 22.9024 45.3381 23.1916 45.04 23.3601L30.5557 31.3162C29.7887 31.7402 28.9471 31.9599 28.0943 31.9574ZM12.2751 21.8089L26.182 29.8218C27.3663 30.4789 28.7507 30.4789 29.935 29.8218L44.2056 21.939L30.3419 14.1047C29.1809 13.4458 27.8181 13.4309 26.6459 14.0641L12.2751 21.8089Z" fill="#A678E4"/>
<path d="M12.9967 33.8167C12.6027 33.8167 12.2832 33.4532 12.2832 33.0049L12.0548 22.2561L28.2092 21.1602C28.3984 21.1471 28.5844 21.22 28.7265 21.3631C28.8686 21.5063 28.9542 21.7082 28.9654 21.9234C28.9772 22.1387 28.9128 22.3508 28.787 22.512C28.6612 22.6737 28.4841 22.7715 28.2945 22.7839L13.5175 23.7827L13.7102 32.9809C13.7102 33.1961 13.635 33.4027 13.5013 33.5549C13.3675 33.7072 13.1859 33.7927 12.9967 33.7927L12.9967 33.8167Z" fill="#A678E4"/>
<path d="M13.0245 38.2572C12.3565 38.2572 11.7159 37.9553 11.2435 37.4179C10.7711 36.8804 10.5058 36.1516 10.5058 35.3915C10.5058 34.6311 10.7711 33.9023 11.2435 33.3648C11.7159 32.8273 12.3565 32.5254 13.0245 32.5254C13.6928 32.5254 14.3334 32.8273 14.8058 33.3648C15.2782 33.9023 15.5435 34.6311 15.5435 35.3915C15.5435 36.1515 15.2782 36.8804 14.8058 37.4179C14.3334 37.9553 13.6929 38.2572 13.0245 38.2572ZM13.0245 34.1492C12.583 34.1492 12.1851 34.4518 12.016 34.9161C11.8472 35.3803 11.9405 35.9146 12.2527 36.2697C12.5649 36.6249 13.0344 36.7311 13.4425 36.539C13.8505 36.3466 14.1165 35.8939 14.1165 35.3916C14.1123 34.7073 13.6259 34.1539 13.0245 34.1492Z" fill="#A678E4"/>
<path d="M15.2337 40.2856C15.6439 41.7454 14.5467 43.1932 13.0304 43.1932V43.1932C11.511 43.1932 10.4134 41.7399 10.8291 40.2784L11.7482 37.0475C11.8055 36.8417 11.9326 36.6703 12.1011 36.5713C12.27 36.472 12.4665 36.4535 12.6471 36.5199C12.8089 36.5826 12.9459 36.7094 13.0326 36.8772C13.1227 36.7061 13.2648 36.5793 13.432 36.5199C13.8063 36.3872 14.2045 36.6228 14.324 37.0476L15.2337 40.2856ZM11.9622 41.5695H14.1028L13.0395 37.7866L11.9622 41.5695Z" fill="#A678E4"/>
</svg>
