<svg width="32" height="32" viewBox="0 0 32 32" fill="none" xmlns="http://www.w3.org/2000/svg">
<path d="M10.182 8.0002C9.99588 8.0002 9.80959 8.07109 9.66778 8.21327L8.21327 9.66778C7.92891 9.95213 7.92891 10.4125 8.21327 10.6962L13.5171 16L8.21327 21.3038C7.92891 21.5882 7.92891 22.0486 8.21327 22.3322L9.66778 23.7867C9.95213 24.0711 10.4125 24.0711 10.6962 23.7867L16 18.4829L21.3038 23.7867C21.5875 24.0711 22.0486 24.0711 22.3322 23.7867L23.7867 22.3322C24.0711 22.0479 24.0711 21.5875 23.7867 21.3038L18.4829 16L23.7867 10.6962C24.0711 10.4125 24.0711 9.9514 23.7867 9.66778L22.3322 8.21327C22.0479 7.92891 21.5875 7.92891 21.3038 8.21327L16 13.5171L10.6962 8.21327C10.554 8.07109 10.3681 8.0002 10.182 8.0002Z" fill="#E95E58"/>
<path d="M32 16C32 24.8366 24.8366 32 16 32C7.16344 32 0 24.8366 0 16C0 7.16344 7.16344 0 16 0C24.8366 0 32 7.16344 32 16Z" fill="#F16473" fill-opacity="0.1"/>
</svg>
