<svg width="32" height="32" viewBox="0 0 32 32" fill="none" xmlns="http://www.w3.org/2000/svg">
<path d="M32 16C32 24.8366 24.8366 32 16 32C7.16344 32 0 24.8366 0 16C0 7.16344 7.16344 0 16 0C24.8366 0 32 7.16344 32 16Z" fill="#AB999B" fill-opacity="0.1"/>
<g clip-path="url(#clip0_11_1896)">
<path d="M23.3219 9.2625C24.0063 9.94594 24.0063 11.0541 23.3219 11.7375L22.3844 12.6781L19.3219 9.61625L20.2625 8.67688C20.9469 7.99333 22.0531 7.99333 22.7375 8.67688L23.3219 9.2625ZM13.3875 15.5531L18.6156 10.3231L21.6781 13.3844L16.4469 18.6125C16.2562 18.8063 16.0219 18.95 15.7625 19.0375L12.9875 19.9625C12.6906 20.05 12.4219 19.9812 12.2188 19.7531C12.0188 19.5781 11.95 19.2812 12.0375 19.0125L12.9625 16.2375C13.05 15.9781 13.1937 15.7438 13.3875 15.5531ZM14 9.97188C14.5531 9.97188 15 10.4478 15 10.9719C15 11.5531 14.5531 11.9719 14 11.9719H11C10.4478 11.9719 10 12.4469 10 12.9719V21C10 21.5531 10.4478 22 11 22H19C19.5531 22 20 21.5531 20 21V17.9719C20 17.4469 20.4469 16.9719 21 16.9719C21.5531 16.9719 22 17.4469 22 17.9719V21C22 22.6562 20.6562 24 19 24H11C9.34312 24 8 22.6562 8 21V12.9719C8 11.3156 9.34312 9.97188 11 9.97188H14Z" fill="#433E5C"/>
</g>
<defs>
<clipPath id="clip0_11_1896">
<rect width="16" height="16" fill="white" transform="translate(8 8)"/>
</clipPath>
</defs>
</svg>
