<svg width="56" height="56" viewBox="0 0 56 56" fill="none" xmlns="http://www.w3.org/2000/svg">
<circle cx="28" cy="28" r="28" fill="#EDF7FD"/>
<path d="M33.5832 23.3419C33.5259 23.3315 33.4674 23.3315 33.41 23.3419C32.8017 23.3169 32.2257 23.0243 31.8038 22.5259C31.3819 22.0274 31.1472 21.3623 31.1493 20.6709C31.1493 19.1905 32.1976 18 33.5012 18C34.125 18 34.7232 18.2814 35.1643 18.7823C35.6053 19.2832 35.8531 19.9626 35.8531 20.6709C35.8514 21.3628 35.6143 22.0271 35.1912 22.5249C34.7682 23.0227 34.192 23.3154 33.5832 23.3419ZM32.6443 30.8785C33.8932 31.1166 35.2697 30.8681 36.236 30.1331C37.5213 29.16 37.5213 27.5657 36.236 26.5926C35.2606 25.8575 33.8658 25.6091 32.617 25.8575M22.6168 23.3419C22.6714 23.3315 22.7353 23.3315 22.79 23.3419C23.3983 23.3169 23.9743 23.0243 24.3962 22.5259C24.8181 22.0274 25.0528 21.3623 25.0507 20.6709C25.0507 19.1905 24.0024 18 22.6988 18C22.075 18 21.4768 18.2814 21.0357 18.7823C20.5947 19.2832 20.3469 19.9626 20.3469 20.6709C20.356 22.1203 21.3588 23.2901 22.6168 23.3419ZM23.5557 30.8785C22.3068 31.1166 20.9303 30.8681 19.964 30.1331C18.6787 29.16 18.6787 27.5657 19.964 26.5926C20.9394 25.8575 22.3342 25.6091 23.583 25.8575M28.1137 31.0752C28.0563 31.0648 27.9978 31.0648 27.9405 31.0752C27.3321 31.0502 26.7561 30.7576 26.3342 30.2592C25.9124 29.7607 25.6777 29.0956 25.6797 28.4042C25.6797 26.9238 26.728 25.7333 28.0316 25.7333C28.6554 25.7333 29.2536 26.0147 29.6947 26.5156C30.1358 27.0165 30.3835 27.6959 30.3835 28.4042C30.3744 29.8536 29.3717 31.0338 28.1137 31.0752ZM25.4609 34.3362C24.1756 35.3094 24.1756 36.9036 25.4609 37.8768C26.9195 38.9845 29.3079 38.9845 30.7664 37.8768C32.0518 36.9036 32.0518 35.3094 30.7664 34.3362C29.317 33.2389 26.9195 33.2389 25.4609 34.3362Z" fill="#EDF7FD"/>
<path d="M32.6443 30.8785C33.8932 31.1166 35.2697 30.8681 36.236 30.1331C37.5213 29.16 37.5213 27.5657 36.236 26.5926C35.2606 25.8575 33.8658 25.6091 32.617 25.8575M23.5557 30.8785C22.3068 31.1166 20.9303 30.8681 19.964 30.1331C18.6787 29.16 18.6787 27.5657 19.964 26.5926C20.9394 25.8575 22.3342 25.6091 23.583 25.8575M33.5832 23.3419C33.5259 23.3315 33.4674 23.3315 33.41 23.3419C32.8017 23.3169 32.2257 23.0243 31.8038 22.5259C31.3819 22.0274 31.1472 21.3623 31.1493 20.6709C31.1493 19.1905 32.1976 18 33.5012 18C34.125 18 34.7232 18.2814 35.1643 18.7823C35.6053 19.2832 35.8531 19.9626 35.8531 20.6709C35.8514 21.3628 35.6143 22.0271 35.1912 22.5249C34.7682 23.0227 34.192 23.3154 33.5832 23.3419ZM22.6168 23.3419C22.6714 23.3315 22.7353 23.3315 22.79 23.3419C23.3983 23.3169 23.9743 23.0243 24.3962 22.5259C24.8181 22.0274 25.0528 21.3623 25.0507 20.6709C25.0507 19.1905 24.0024 18 22.6988 18C22.075 18 21.4768 18.2814 21.0357 18.7823C20.5947 19.2832 20.3469 19.9626 20.3469 20.6709C20.356 22.1203 21.3588 23.2901 22.6168 23.3419ZM28.1137 31.0752C28.0563 31.0648 27.9978 31.0648 27.9405 31.0752C27.3321 31.0502 26.7561 30.7576 26.3342 30.2592C25.9124 29.7607 25.6777 29.0956 25.6797 28.4042C25.6797 26.9238 26.728 25.7333 28.0316 25.7333C28.6554 25.7333 29.2536 26.0147 29.6947 26.5156C30.1358 27.0165 30.3835 27.6959 30.3835 28.4042C30.3744 29.8536 29.3717 31.0338 28.1137 31.0752ZM25.4609 34.3362C24.1756 35.3094 24.1756 36.9036 25.4609 37.8768C26.9195 38.9845 29.3079 38.9845 30.7664 37.8768C32.0518 36.9036 32.0518 35.3094 30.7664 34.3362C29.317 33.2389 26.9195 33.2389 25.4609 34.3362Z" stroke="#61B8EB" stroke-width="2" stroke-linecap="round" stroke-linejoin="round"/>
</svg>
