<svg width="235" height="34" viewBox="0 0 235 34" fill="none" xmlns="http://www.w3.org/2000/svg">
<path d="M42.9201 7.5591C45.0135 7.5591 46.6797 8.23953 47.9187 9.60038C49.179 10.94 49.8091 12.7899 49.8091 15.1501V25.5478H44.362V15.8837C44.362 14.6929 44.0523 13.768 43.4328 13.1088C42.8133 12.4497 41.9802 12.1201 40.9335 12.1201C39.8868 12.1201 39.0537 12.4497 38.4343 13.1088C37.8148 13.768 37.505 14.6929 37.505 15.8837V25.5478H32.0259V7.75047H37.505V10.1107C38.0604 9.32395 38.8081 8.70732 39.748 8.26079C40.6879 7.793 41.7453 7.5591 42.9201 7.5591Z" fill="#2FC5D2"/>
<path d="M59.0958 1.94559V25.5478H53.6166V1.94559H59.0958Z" fill="#2FC5D2"/>
<path d="M65.8221 5.90056C64.8608 5.90056 64.0704 5.62414 63.451 5.0713C62.8528 4.49719 62.5538 3.7955 62.5538 2.96623C62.5538 2.1157 62.8528 1.41401 63.451 0.861163C64.0704 0.287055 64.8608 0 65.8221 0C66.762 0 67.531 0.287055 68.1291 0.861163C68.7486 1.41401 69.0583 2.1157 69.0583 2.96623C69.0583 3.7955 68.7486 4.49719 68.1291 5.0713C67.531 5.62414 66.762 5.90056 65.8221 5.90056ZM68.5456 7.75047V25.5478H63.0665V7.75047H68.5456Z" fill="#2FC5D2"/>
<path d="M83.4106 7.5591C85.504 7.5591 87.1701 8.23953 88.4091 9.60038C89.6694 10.94 90.2996 12.7899 90.2996 15.1501V25.5478H84.8524V15.8837C84.8524 14.6929 84.5427 13.768 83.9232 13.1088C83.3038 12.4497 82.4707 12.1201 81.424 12.1201C80.3773 12.1201 79.5442 12.4497 78.9247 13.1088C78.3052 13.768 77.9955 14.6929 77.9955 15.8837V25.5478H72.5163V7.75047H77.9955V10.1107C78.5509 9.32395 79.2985 8.70732 80.2384 8.26079C81.1783 7.793 82.2357 7.5591 83.4106 7.5591Z" fill="#2FC5D2"/>
<path d="M110.961 16.3621C110.961 16.8724 110.929 17.404 110.865 17.9569H98.4647C98.5502 19.0625 98.9026 19.9131 99.5221 20.5084C100.163 21.0826 100.943 21.3696 101.861 21.3696C103.228 21.3696 104.179 20.7955 104.713 19.6473H110.545C110.245 20.8168 109.701 21.8693 108.91 22.8049C108.141 23.7405 107.169 24.474 105.995 25.0056C104.82 25.5372 103.506 25.803 102.053 25.803C100.302 25.803 98.7424 25.4309 97.3753 24.6867C96.0082 23.9425 94.9401 22.8793 94.1711 21.4972C93.4021 20.1151 93.0176 18.4991 93.0176 16.6492C93.0176 14.7993 93.3914 13.1832 94.1391 11.8011C94.9081 10.419 95.9762 9.35585 97.3433 8.61163C98.7104 7.86742 100.28 7.49531 102.053 7.49531C103.784 7.49531 105.322 7.85679 106.667 8.57974C108.013 9.30269 109.06 10.334 109.808 11.6735C110.577 13.0131 110.961 14.576 110.961 16.3621ZM105.354 14.9268C105.354 13.9912 105.033 13.247 104.392 12.6942C103.752 12.1413 102.951 11.8649 101.989 11.8649C101.071 11.8649 100.291 12.1307 99.6503 12.6623C99.0308 13.1939 98.6463 13.9487 98.4968 14.9268H105.354Z" fill="#2FC5D2"/>
<path d="M123.397 5.90056C122.436 5.90056 121.646 5.62414 121.026 5.0713C120.428 4.49719 120.129 3.7955 120.129 2.96623C120.129 2.1157 120.428 1.41401 121.026 0.861163C121.646 0.287055 122.436 0 123.397 0C124.337 0 125.106 0.287055 125.704 0.861163C126.324 1.41401 126.634 2.1157 126.634 2.96623C126.634 3.7955 126.324 4.49719 125.704 5.0713C125.106 5.62414 124.337 5.90056 123.397 5.90056ZM126.121 7.75047V25.5478H120.642V7.75047H126.121Z" fill="white"/>
<path d="M140.986 7.5591C143.079 7.5591 144.745 8.23953 145.984 9.60038C147.245 10.94 147.875 12.7899 147.875 15.1501V25.5478H142.428V15.8837C142.428 14.6929 142.118 13.768 141.498 13.1088C140.879 12.4497 140.046 12.1201 138.999 12.1201C137.953 12.1201 137.119 12.4497 136.5 13.1088C135.88 13.768 135.571 14.6929 135.571 15.8837V25.5478H130.092V7.75047H135.571V10.1107C136.126 9.32395 136.874 8.70732 137.814 8.26079C138.754 7.793 139.811 7.5591 140.986 7.5591Z" fill="white"/>
<path d="M163.229 12.2796H157.706V25.5478H152.227V12.2796H150.24V7.75047H152.227V7.24015C152.227 5.05003 152.857 3.3915 154.118 2.26454C155.378 1.11632 157.226 0.542214 159.661 0.542214C160.067 0.542214 160.366 0.552846 160.558 0.574109V5.19888C159.511 5.13509 158.774 5.28393 158.347 5.6454C157.92 6.00688 157.706 6.65541 157.706 7.59099V7.75047H163.229V12.2796Z" fill="white"/>
<path d="M165.984 5.90056C165.023 5.90056 164.233 5.62414 163.613 5.0713C163.015 4.49719 162.716 3.7955 162.716 2.96623C162.716 2.1157 163.015 1.41401 163.613 0.861163C164.233 0.287055 165.023 0 165.984 0C166.924 0 167.693 0.287055 168.291 0.861163C168.911 1.41401 169.22 2.1157 169.22 2.96623C169.22 3.7955 168.911 4.49719 168.291 5.0713C167.693 5.62414 166.924 5.90056 165.984 5.90056ZM168.708 7.75047V12.1998V16.6492V25.5478H163.229V7.75047H168.708Z" fill="white"/>
<path d="M183.573 7.5591C185.666 7.5591 187.332 8.23953 188.571 9.60038C189.832 10.94 190.462 12.7899 190.462 15.1501V25.5478H185.015V15.8837C185.015 14.6929 184.705 13.768 184.085 13.1088C183.466 12.4497 182.633 12.1201 181.586 12.1201C180.539 12.1201 179.706 12.4497 179.087 13.1088C178.467 13.768 178.158 14.6929 178.158 15.8837V25.5478H172.679V7.75047H178.158V10.1107C178.713 9.32395 179.461 8.70732 180.401 8.26079C181.341 7.793 182.398 7.5591 183.573 7.5591Z" fill="white"/>
<path d="M197.025 5.90056C196.064 5.90056 195.273 5.62414 194.654 5.0713C194.056 4.49719 193.757 3.7955 193.757 2.96623C193.757 2.1157 194.056 1.41401 194.654 0.861163C195.273 0.287055 196.064 0 197.025 0C197.965 0 198.734 0.287055 199.332 0.861163C199.951 1.41401 200.261 2.1157 200.261 2.96623C200.261 3.7955 199.951 4.49719 199.332 5.0713C198.734 5.62414 197.965 5.90056 197.025 5.90056ZM199.748 7.75047V25.5478H194.269V7.75047H199.748Z" fill="white"/>
<path d="M235 7.75047L223.785 34H217.89L221.991 24.9418L214.717 7.75047H220.837L224.971 18.8818L229.072 7.75047H235Z" fill="white"/>
<path d="M204.584 25.5478V12.2796H202.405V7.75047H204.584V1.62666H210.063V7.75047H213.652V12.2796H210.063V25.5478H204.584Z" fill="white"/>
<rect y="7.60696" width="30.0393" height="17.9409" rx="8.97045" fill="#2FC5D2"/>
<ellipse cx="9.01176" cy="16.5774" rx="6.00785" ry="5.9803" fill="white"/>
</svg>
