<svg width="24" height="24" viewBox="0 0 24 24" fill="none" xmlns="http://www.w3.org/2000/svg">
<path d="M10.8 18C10.8 18.6627 11.3373 19.2 12 19.2C12.6627 19.2 13.2 18.6627 13.2 18C13.2 17.3373 12.6627 16.8 12 16.8C11.3373 16.8 10.8 17.3373 10.8 18ZM12 0C5.376 0 0 5.376 0 12C0 18.624 5.376 24 12 24C18.624 24 24 18.624 24 12C24 5.376 18.624 0 12 0ZM12 21.6C6.708 21.6 2.4 17.292 2.4 12C2.4 6.708 6.708 2.4 12 2.4C17.292 2.4 21.6 6.708 21.6 12C21.6 17.292 17.292 21.6 12 21.6ZM12 4.8C9.75803 4.8 7.87627 6.33513 7.34797 8.41212C7.1846 9.05441 7.73726 9.6 8.4 9.6C9.06274 9.6 9.57594 9.03051 9.89546 8.44988C10.3045 7.70657 11.096 7.2 12 7.2C13.32 7.2 14.4 8.28 14.4 9.6C14.4 11.7234 11.5821 11.7333 10.9325 14.4083C10.7761 15.0523 11.3373 15.6 12 15.6C12.6627 15.6 13.1721 15.0354 13.4606 14.4388C14.2879 12.728 16.8 12.1061 16.8 9.6C16.8 6.948 14.652 4.8 12 4.8Z" fill="white"/>
</svg>
