<svg width="26" height="26" viewBox="0 0 26 26" fill="none" xmlns="http://www.w3.org/2000/svg">
<path d="M18.6502 3.42381C21.0847 3.42381 23.0424 5.32581 23.0424 7.66393C23.0424 9.9536 21.16 11.8193 18.8133 11.9041C18.7049 11.8919 18.5955 11.8919 18.4871 11.9041M21.0722 22.8072C21.9757 22.6255 22.829 22.2742 23.5318 21.7533C25.4894 20.3359 25.4894 17.9977 23.5318 16.5803C22.8416 16.0715 22.0008 15.7323 21.1098 15.5385M9.55216 11.7466C9.42667 11.7345 9.27608 11.7345 9.13804 11.7466C7.69767 11.6994 6.33288 11.1128 5.33271 10.111C4.33254 9.10931 3.77552 7.77109 3.77961 6.37978C3.77961 3.41169 6.26431 1.00088 9.35137 1.00088C10.8274 0.975171 12.2536 1.51659 13.3162 2.50601C14.3787 3.49544 14.9906 4.85184 15.0173 6.27681C15.0439 7.70177 14.4831 9.07859 13.4581 10.1044C12.4332 11.1301 11.0282 11.7209 9.55216 11.7466ZM3.27765 16.2169C0.240784 18.1795 0.240784 21.3777 3.27765 23.3282C6.72863 25.5573 12.3882 25.5573 15.8392 23.3282C18.8761 21.3656 18.8761 18.1673 15.8392 16.2169C12.4008 13.9999 6.74118 13.9999 3.27765 16.2169Z" stroke="white" stroke-width="1.5" stroke-linecap="round" stroke-linejoin="round"/>
</svg>
