<svg width="56" height="56" viewBox="0 0 56 56" fill="none" xmlns="http://www.w3.org/2000/svg">
<circle cx="28" cy="28" r="28" fill="#FFF4F6"/>
<path d="M44.801 26.8505L41.1954 23.002C37.5611 19.129 32.7465 17 27.6296 17C22.5127 17 17.6981 19.129 14.0709 23.002L10.4653 26.8505C9.59454 27.9068 10.1559 29.0204 10.4653 29.2906L14.0709 33.1391C17.6981 37.0122 22.5127 39.1412 27.6296 39.1412C32.7465 39.1412 37.5611 37.0122 41.1882 33.1391L44.7938 29.2906C45.1321 28.9713 45.6718 27.8495 44.801 26.8505ZM27.6296 32.9836C25.2475 32.9836 23.3115 30.7809 23.3115 28.0706C23.3115 25.3603 25.2475 23.1576 27.6296 23.1576C30.0117 23.1576 31.9476 25.3603 31.9476 28.0706C31.9476 30.7809 30.0117 32.9836 27.6296 32.9836ZM13.6175 28.0706L16.086 25.4421C18.389 22.9856 21.2677 21.3562 24.3982 20.6847C22.0161 22.044 20.3825 24.8444 20.3825 28.0706C20.3825 31.2968 22.0233 34.1054 24.3982 35.4564C21.2677 34.7932 18.389 33.1555 16.086 30.699L13.6175 28.0706ZM39.1804 30.699C36.8774 33.1555 33.9987 34.7932 30.8681 35.4564C33.2502 34.0972 34.8839 31.2968 34.8839 28.0706C34.8839 24.8444 33.243 22.044 30.8681 20.6847C33.9987 21.348 36.8774 22.9856 39.1804 25.4421L41.6488 28.0706L39.1804 30.699Z" fill="#F16473"/>
<path d="M27.6296 26.3674C26.8164 26.3674 26.1327 27.1453 26.1327 28.0706C26.1327 28.9958 26.8164 29.7737 27.6296 29.7737C28.4428 29.7737 29.1265 28.9958 29.1265 28.0706C29.1265 27.1453 28.4428 26.3674 27.6296 26.3674Z" fill="#F16473"/>
</svg>
